<?xml version="1.0" encoding="utf-8"?>
<!-- Generator: Adobe Adobe Illustrator 29.2.0, SVG Export Plug-In . SVG Version: 6.00 Build 0)  -->
<svg version="1.1" id="Layer_1" xmlns="http://www.w3.org/2000/svg" xmlns:xlink="http://www.w3.org/1999/xlink" x="0px" y="0px"
	 width="1280px" height="1280px" viewBox="0 0 1280 1280" style="enable-background:new 0 0 1280 1280;" xml:space="preserve">
<style type="text/css">
	.st0{fill:#FFFFFF;}
</style>
<path d="M-64.76,1344.76V-64.76h1409.53v1409.53H-64.76z"/>
<g>
	<polygon class="st0" points="347.04,698.18 393.42,698.18 393.42,490.97 279.85,490.97 279.85,791.58 393.42,791.58 393.42,791.46 
		347.51,791.46 	"/>
	<path class="st0" d="M824.43,490.97H505.46c-66,0-104.71,25.81-104.71,92.91v10.69c0,57.89,29.5,88.49,103.98,88.49h73.37
		c4.79,0,7.37,1.84,7.37,7.01v1.11c0,4.79-1.84,7.01-7.37,7.01H393.42v93.28h207.17c71.9,0,99.18-42.77,99.18-91.81v-19.17
		c0-44.25-32.08-77.43-93.28-77.43h-81.85c-6.64,0-8.48-3.69-8.48-8.11v-1.47c0-4.06,2.58-7.01,8.48-7.01h182.13
		C711.02,515.93,736.78,490.97,824.43,490.97z"/>
	<polygon class="st0" points="347.04,698.18 347.51,791.46 393.42,791.46 393.42,698.18 	"/>
	<path class="st0" d="M865.36,490.97h-7.44v95.5H706.76c-0.47,7.79-0.68,16.13-0.68,25.07v180.3h105.08V747.3h73v44.53h104.34
		v-180.3C988.51,521.74,962.7,490.97,865.36,490.97z M884.16,653.17h-73v-41.64c0-18.83,2.95-24.26,19.54-24.26h33.55
		c16.96,0,19.91,5.43,19.91,24.26V653.17z"/>
	<path class="st0" d="M857.92,490.97h-33.49c-87.65,0-113.41,24.96-117.67,95.5h151.16V490.97z"/>
</g>
</svg>
